<?xml version="1.0" standalone="no"?>
<!DOCTYPE svg PUBLIC "-//W3C//DTD SVG 20010904//EN"
 "http://www.w3.org/TR/2001/REC-SVG-20010904/DTD/svg10.dtd">
<svg version="1.0" xmlns="http://www.w3.org/2000/svg"
 width="199.000000pt" height="182.000000pt" viewBox="0 0 199.000000 182.000000"
 preserveAspectRatio="xMidYMid meet">

<g transform="translate(0.000000,182.000000) scale(0.100000,-0.100000)"
fill="#000000" stroke="none">
<path d="M0 910 l0 -910 995 0 995 0 0 910 0 910 -995 0 -995 0 0 -910z m275
420 c17 -33 33 -60 36 -60 4 0 20 26 37 58 23 44 36 58 56 60 l26 3 0 -115 0
-116 -25 0 c-23 0 -24 3 -27 68 l-3 67 -23 -42 c-30 -57 -51 -56 -83 5 l-24
47 -3 -72 c-3 -65 -5 -73 -22 -73 -19 0 -20 8 -20 115 0 113 0 115 23 115 18
0 29 -13 52 -60z m545 0 c0 -33 3 -60 7 -60 4 0 19 12 34 26 16 15 35 24 48
22 21 -3 21 -4 -8 -39 l-30 -36 29 -34 c36 -42 37 -49 6 -49 -16 0 -32 11 -46
30 -12 17 -26 30 -31 30 -5 0 -9 -13 -9 -30 0 -23 -4 -30 -20 -30 -19 0 -20 7
-20 115 0 108 1 115 20 115 18 0 20 -7 20 -60z m290 -56 l0 -116 -27 5 c-15 3
-36 1 -45 -4 -49 -26 -105 34 -92 100 9 45 36 65 79 58 l35 -6 0 40 c0 35 3
39 25 39 l25 0 0 -116z m-525 32 c14 -10 20 -30 23 -81 l5 -68 -29 6 c-15 3
-38 0 -50 -5 -28 -13 -74 12 -74 39 0 28 31 53 67 53 22 0 33 5 33 14 0 19
-20 25 -49 14 -17 -6 -27 -5 -32 4 -21 32 68 52 106 24z m105 4 c0 -7 6 -7 19
0 29 15 41 12 41 -10 0 -11 -6 -20 -14 -20 -28 0 -46 -30 -46 -76 0 -37 -3
-44 -20 -44 -18 0 -20 7 -20 80 0 73 2 80 20 80 11 0 20 -5 20 -10z m590 -10
c45 -45 33 -111 -24 -138 -83 -41 -157 68 -91 133 31 31 86 34 115 5z m101
-25 c6 -25 14 -45 18 -45 4 0 13 19 21 43 21 60 48 58 70 -8 l17 -50 15 50
c13 42 19 51 41 53 l26 3 -28 -78 c-24 -66 -33 -78 -53 -81 -21 -3 -26 3 -37
38 -14 46 -20 45 -37 -3 -7 -23 -18 -33 -35 -35 -21 -2 -26 4 -46 60 -12 35
-25 71 -28 81 -6 13 -2 17 19 17 22 0 27 -6 37 -45z m269 35 c0 -7 6 -7 19 0
27 14 66 13 79 -2 5 -7 12 -43 14 -80 4 -65 3 -68 -19 -68 -20 0 -22 5 -25 58
-3 53 -5 57 -28 57 -23 0 -25 -4 -28 -57 -3 -54 -5 -58 -27 -58 -24 0 -25 2
-25 80 0 73 2 80 20 80 11 0 20 -5 20 -10z m-1410 -300 c0 -27 4 -50 8 -50 4
0 25 23 46 50 27 35 45 50 62 50 13 0 24 -3 24 -7 0 -4 -18 -29 -41 -55 l-41
-49 46 -59 c25 -32 46 -61 46 -64 0 -3 -11 -6 -24 -6 -18 0 -36 14 -63 50 -49
64 -63 64 -63 0 0 -43 -3 -50 -20 -50 -19 0 -20 7 -20 120 0 113 1 120 20 120
17 0 20 -7 20 -50z m580 10 l0 -40 39 6 c53 8 81 -19 81 -78 0 -68 -49 -105
-101 -78 -13 7 -19 7 -19 0 0 -5 -9 -10 -20 -10 -19 0 -20 7 -20 120 0 113 1
120 20 120 17 0 20 -7 20 -40z m-295 -50 c14 -16 18 -35 17 -82 -2 -70 -6 -77
-32 -60 -12 7 -21 8 -25 2 -17 -27 -85 4 -85 38 0 28 32 52 67 52 48 0 38 25
-10 26 -46 1 -58 11 -33 30 29 21 80 18 101 -6z m100 10 c5 -8 11 -7 20 0 8 6
26 10 42 8 37 -4 54 -40 51 -108 -3 -48 -6 -55 -25 -58 -20 -3 -22 1 -25 60
-3 60 -4 63 -28 63 -24 0 -25 -3 -28 -63 -3 -59 -5 -63 -25 -60 -20 3 -22 10
-25 72 -2 38 -1 75 2 83 6 16 32 17 41 3z m465 -10 c16 -16 20 -33 20 -85 0
-58 -2 -65 -20 -65 -11 0 -20 5 -20 10 0 7 -6 7 -19 0 -11 -5 -27 -10 -35 -10
-18 0 -56 34 -56 50 0 21 41 50 70 50 21 0 30 5 30 16 0 14 -7 16 -39 11 -28
-3 -41 -1 -45 9 -13 35 82 46 114 14z m100 10 c0 -7 6 -7 19 0 28 14 52 12 73
-7 14 -13 18 -31 18 -85 0 -66 -1 -69 -22 -66 -24 3 -25 7 -27 86 -1 35 -4 42
-21 42 -26 0 -40 -29 -40 -84 0 -39 -3 -46 -20 -46 -18 0 -20 7 -20 85 0 78 2
85 20 85 11 0 20 -5 20 -10z m-850 -263 c13 -7 29 -25 34 -40 8 -22 6 -33 -14
-59 l-23 -32 21 -37 c28 -48 28 -61 0 -57 -16 2 -31 19 -48 50 -18 36 -31 48
-47 48 -21 0 -23 -5 -23 -50 0 -43 -3 -50 -20 -50 -19 0 -20 7 -20 120 l0 120
58 0 c31 0 68 -6 82 -13z m580 -102 c0 -97 -3 -117 -16 -122 -9 -3 -19 -1 -23
5 -4 7 -12 8 -21 2 -47 -30 -100 11 -100 77 0 58 28 88 76 80 34 -6 34 -6 34
34 0 35 3 39 25 39 l25 0 0 -115z m-384 21 c58 -49 20 -146 -57 -146 -43 0
-79 39 -79 85 0 74 80 110 136 61z m174 4 c26 -26 29 -137 4 -147 -9 -3 -19
-1 -23 5 -4 7 -12 8 -21 2 -8 -6 -23 -10 -32 -10 -19 0 -58 34 -58 50 0 21 41
50 70 50 21 0 30 5 30 16 0 14 -7 16 -39 11 -29 -3 -41 -1 -45 9 -13 33 83 45
114 14z m285 10 c3 -6 15 -5 30 2 19 8 32 8 52 -1 18 -8 29 -9 37 -1 15 15 52
12 71 -6 12 -12 15 -32 13 -83 -3 -58 -5 -66 -23 -66 -18 0 -20 8 -23 63 -3
59 -5 63 -25 60 -20 -3 -22 -10 -25 -65 -3 -55 -6 -63 -22 -63 -17 0 -20 7
-20 49 0 62 -7 81 -30 81 -23 0 -30 -19 -30 -81 0 -42 -3 -49 -20 -49 -18 0
-20 7 -20 85 0 67 3 85 14 85 8 0 17 -4 21 -10z m353 -6 c19 -13 22 -24 22
-85 0 -53 -3 -69 -14 -69 -8 0 -17 4 -21 10 -3 6 -15 5 -30 -2 -38 -17 -75 3
-75 41 0 35 22 51 70 51 46 0 33 25 -13 26 -46 1 -58 11 -33 30 26 18 66 18
94 -2z m102 6 c0 -7 6 -7 19 0 54 28 101 -6 101 -73 0 -57 -34 -93 -79 -84
-27 6 -30 3 -33 -21 -2 -19 -9 -28 -25 -30 -23 -3 -23 -2 -23 107 0 104 1 111
20 111 11 0 20 -5 20 -10z"/>
<path d="M994 1254 c-8 -33 6 -58 34 -62 16 -2 23 3 28 22 10 41 1 61 -28 64
-23 3 -29 -2 -34 -24z"/>
<path d="M528 1223 c-10 -2 -18 -11 -18 -19 0 -22 44 -14 48 9 4 17 1 18 -30
10z"/>
<path d="M1212 1283 c-22 -8 -33 -40 -22 -67 17 -47 70 -27 70 26 0 28 -24 49
-48 41z"/>
<path d="M828 924 c-15 -32 0 -59 32 -59 27 0 41 30 29 63 -12 31 -46 29 -61
-4z"/>
<path d="M445 880 c-8 -13 20 -24 40 -16 8 3 15 10 15 16 0 13 -47 13 -55 0z"/>
<path d="M1010 875 c0 -9 9 -15 25 -15 16 0 25 6 25 15 0 9 -9 15 -25 15 -16
0 -25 -6 -25 -15z"/>
<path d="M240 660 c0 -28 2 -30 40 -30 27 0 43 5 46 15 10 24 -15 45 -52 45
-31 0 -34 -3 -34 -30z"/>
<path d="M812 608 c-29 -29 -4 -84 35 -76 28 5 26 82 -2 86 -11 1 -26 -3 -33
-10z"/>
<path d="M451 598 c-12 -33 2 -63 29 -63 29 0 45 25 36 58 -8 35 -53 38 -65 5z"/>
<path d="M630 545 c0 -9 9 -15 25 -15 16 0 25 6 25 15 0 9 -9 15 -25 15 -16 0
-25 -6 -25 -15z"/>
<path d="M1277 553 c-15 -14 -6 -24 20 -21 34 4 43 28 11 28 -14 0 -28 -3 -31
-7z"/>
<path d="M1467 613 c-14 -14 -7 -74 9 -80 37 -14 70 41 44 73 -13 15 -42 19
-53 7z"/>
</g>
</svg>
